# xmcd
#
# Track frame offsets: 
#        150
#        33624
#        102297
#        136071
#        196718
#
# Disc length: 3150 seconds
#
# Revision: 0
# Processed by: cddbd v1.5.2PL0 Copyright (c) Steve Scherf et al.
# Submitted via: ExactAudioCopy v0.99pb4
#
DISCID=390c4c05
DTITLE=Zone Six - Live In Der Regenbogenfabrik I
DYEAR=2004
DGENRE=Psychedelic
TTITLE0=Sturz Ins Leere
TTITLE1=Drogenhölle
TTITLE2=Nebel Mit Knöpfen
TTITLE3=Vor Dem Einschlag
TTITLE4=Nach Dem Einschlag
EXTD=
EXTT0=
EXTT1=
EXTT2=
EXTT3=
EXTT4=
PLAYORDER=
